# xmcd
#
# Track frame offsets: 
#        150
#        21827
#        44582
#
# Disc length: 1009 seconds
#
# Revision: 3
# Processed by: cddbd v1.5.2PL0 Copyright (c) Steve Scherf et al.
# Submitted via: ExactAudioCopyFreeDBPlugin 1.0
#
DISCID=2003ef03
DTITLE=Nick Cave and The Bad Seeds - Red Right Hand
DYEAR=1900
DGENRE=Rock
TTITLE0=Red Right Hand
TTITLE1=That's What Jazz Is To Me
TTITLE2=Where The Action Is
EXTD=Red Right Hand (ep d11870)
EXTT0=
EXTT1=
EXTT2=
PLAYORDER=
